<?xml version="1.0" encoding="utf-8"?>
<!-- Generator: Adobe Illustrator 19.0.1, SVG Export Plug-In . SVG Version: 6.00 Build 0)  -->
<!DOCTYPE svg PUBLIC "-//W3C//DTD SVG 1.1//EN" "http://www.w3.org/Graphics/SVG/1.1/DTD/svg11.dtd">
<svg version="1.1" id="Layer_1" xmlns="http://www.w3.org/2000/svg" xmlns:xlink="http://www.w3.org/1999/xlink" x="0px" y="0px"
	 viewBox="0 0 50 50" enable-background="new 0 0 50 50" xml:space="preserve">
<path fill="#FFFFFF" d="M45,7.5h-7.925l-4.575-5h-15l-4.575,5H5c-2.75,0-5,2.25-5,5v30c0,2.75,2.25,5,5,5h40c2.75,0,5-2.25,5-5v-30
	C50,9.75,47.75,7.5,45,7.5z M12.925,40H8.746c-1.761,0-3.189-1.428-3.189-3.189v-4.174h3v4.174C8.557,36.915,8.642,37,8.746,37
	h4.179V40z M12.925,17.75H8.746c-0.104,0-0.189,0.085-0.189,0.189v3.763h-3v-3.763c0-1.761,1.428-3.189,3.189-3.189h4.179V17.75z
	 M44.443,36.812c0,1.761-1.428,3.189-3.189,3.189H37v-3h4.254c0.104,0,0.189-0.085,0.189-0.189v-4.174h3V36.812z M44.443,21.702h-3
	v-3.763c0-0.104-0.085-0.189-0.189-0.189H37v-3h4.254c1.761,0,3.189,1.428,3.189,3.189V21.702z"/>
</svg>
