<?xml version="1.0" encoding="utf-8"?>
<!-- Generator: Adobe Illustrator 19.0.1, SVG Export Plug-In . SVG Version: 6.00 Build 0)  -->
<!DOCTYPE svg PUBLIC "-//W3C//DTD SVG 1.1//EN" "http://www.w3.org/Graphics/SVG/1.1/DTD/svg11.dtd">
<svg version="1.1" id="Layer_1" xmlns="http://www.w3.org/2000/svg" xmlns:xlink="http://www.w3.org/1999/xlink" x="0px" y="0px"
	 viewBox="0 0 50 50" enable-background="new 0 0 50 50" xml:space="preserve">
<path fill="#2FD09E" d="M40.06,35.341c-1.908,0-3.614,0.753-4.92,1.933L17.244,26.857c0.126-0.577,0.226-1.155,0.226-1.757
	c0-0.602-0.1-1.18-0.226-1.757L34.94,13.027c1.355,1.255,3.138,2.033,5.12,2.033c4.167,0,7.53-3.363,7.53-7.53S44.227,0,40.06,0
	s-7.53,3.363-7.53,7.53c0,0.602,0.1,1.18,0.226,1.757L15.06,19.603c-1.355-1.255-3.138-2.033-5.12-2.033
	c-4.167,0-7.53,3.363-7.53,7.53s3.363,7.53,7.53,7.53c1.983,0,3.765-0.778,5.12-2.033l17.871,10.442
	c-0.126,0.527-0.201,1.079-0.201,1.632c0,4.041,3.288,7.329,7.329,7.329s7.329-3.288,7.329-7.329S44.101,35.341,40.06,35.341z"/>
</svg>
