<?xml version="1.0" encoding="utf-8"?>
<!-- Generator: Adobe Illustrator 19.0.1, SVG Export Plug-In . SVG Version: 6.00 Build 0)  -->
<!DOCTYPE svg PUBLIC "-//W3C//DTD SVG 1.1//EN" "http://www.w3.org/Graphics/SVG/1.1/DTD/svg11.dtd">
<svg version="1.1" id="Layer_1" xmlns="http://www.w3.org/2000/svg" xmlns:xlink="http://www.w3.org/1999/xlink" x="0px" y="0px"
	 viewBox="0 0 50 50" enable-background="new 0 0 50 50" xml:space="preserve">
<path fill="#A8A198" d="M45,7.5h-7.925l-4.575-5h-15l-4.575,5H5c-2.75,0-5,2.25-5,5v30c0,2.75,2.25,5,5,5h40c2.75,0,5-2.25,5-5v-30
	C50,9.75,47.75,7.5,45,7.5z"/>
<path fill="#FFFFFF" d="M5.557,21.702v-3.763c0-1.761,1.428-3.189,3.189-3.189h4.179v3H8.746c-0.104,0-0.189,0.085-0.189,0.189
	v3.763H5.557z M37,17.75h4.254c0.104,0,0.189,0.085,0.189,0.189v3.763h3v-3.763c0-1.761-1.428-3.189-3.189-3.189H37V17.75z
	 M12.925,37H8.746c-0.104,0-0.189-0.085-0.189-0.189v-4.174h-3v4.174C5.557,38.572,6.985,40,8.746,40h4.179V37z M41.443,32.638
	v4.174c0,0.104-0.085,0.189-0.189,0.189H37v3h4.254c1.761,0,3.189-1.428,3.189-3.189v-4.174H41.443z"/>
</svg>
